<svg width="680" height="620" viewBox="0 0 680 620" xmlns="http://www.w3.org/2000/svg" style="background:#ffffff;">
  <defs>
    <marker id="arrow" viewBox="0 0 10 10" refX="8" refY="5" markerWidth="7" markerHeight="7" orient="auto">
      <path d="M1 1L8 5L1 9" fill="none" stroke="context-stroke" stroke-width="1.4" stroke-linecap="round" stroke-linejoin="round"/>
    </marker>
    <marker id="inherit" viewBox="0 0 12 12" refX="10" refY="6" markerWidth="10" markerHeight="10" orient="auto">
      <polygon points="2,2 10,6 2,10" fill="white" stroke="#888" stroke-width="1.2"/>
    </marker>
  </defs>

  <rect x="220" y="20" width="240" height="130" rx="4" fill="#EEEDFE" stroke="#534AB7" stroke-width="0.8"/>
  <rect x="220" y="20" width="240" height="28" rx="4" fill="#CECBF6" stroke="none"/>
  <rect x="220" y="44" width="240" height="4" fill="#CECBF6" stroke="none"/>
  <text font-family="sans-serif" font-size="13" font-weight="600" x="340" y="38" text-anchor="middle" dominant-baseline="central" fill="#26215C">Kullanici</text>
  <line x1="220" y1="48" x2="460" y2="48" stroke="#534AB7" stroke-width="0.5"/>
  <text font-family="sans-serif" font-size="11" x="232" y="65" dominant-baseline="central" fill="#26215C">- kullaniciId: String</text>
  <text font-family="sans-serif" font-size="11" x="232" y="83" dominant-baseline="central" fill="#26215C">- ad: String</text>
  <text font-family="sans-serif" font-size="11" x="232" y="101" dominant-baseline="central" fill="#26215C">- email: String</text>
  <line x1="220" y1="114" x2="460" y2="114" stroke="#534AB7" stroke-width="0.5"/>
  <text font-family="sans-serif" font-size="11" x="232" y="131" dominant-baseline="central" fill="#26215C">+ filmSatinAl(film: Film)</text>
  <text font-family="sans-serif" font-size="11" x="232" y="143" dominant-baseline="central" fill="#26215C">+ filmListele(): List</text>

  <rect x="20" y="80" width="180" height="58" rx="4" fill="#E1F5EE" stroke="#0F6E56" stroke-width="0.8"/>
  <rect x="20" y="80" width="180" height="28" rx="4" fill="#9FE1CB" stroke="none"/>
  <rect x="20" y="104" width="180" height="4" fill="#9FE1CB" stroke="none"/>
  <text font-family="sans-serif" font-size="12" font-style="italic" x="110" y="98" text-anchor="middle" dominant-baseline="central" fill="#04342C">interface</text>
  <text font-family="sans-serif" font-size="13" font-weight="600" x="110" y="112" text-anchor="middle" dominant-baseline="central" fill="#04342C">ISatinAlinabilir</text>
  <line x1="20" y1="108" x2="200" y2="108" stroke="#0F6E56" stroke-width="0.5"/>
  <text font-family="sans-serif" font-size="11" x="32" y="127" dominant-baseline="central" fill="#04342C">+ filmSatinAl(film: Film)</text>

  <rect x="480" y="80" width="180" height="58" rx="4" fill="#E1F5EE" stroke="#0F6E56" stroke-width="0.8"/>
  <rect x="480" y="80" width="180" height="28" rx="4" fill="#9FE1CB" stroke="none"/>
  <rect x="480" y="104" width="180" height="4" fill="#9FE1CB" stroke="none"/>
  <text font-family="sans-serif" font-size="12" font-style="italic" x="570" y="98" text-anchor="middle" dominant-baseline="central" fill="#04342C">interface</text>
  <text font-family="sans-serif" font-size="13" font-weight="600" x="570" y="112" text-anchor="middle" dominant-baseline="central" fill="#04342C">IKiralanabilir</text>
  <line x1="480" y1="108" x2="660" y2="108" stroke="#0F6E56" stroke-width="0.5"/>
  <text font-family="sans-serif" font-size="11" x="492" y="127" dominant-baseline="central" fill="#04342C">+ filmKirala(film: Film)</text>

  <rect x="60" y="280" width="220" height="120" rx="4" fill="#FAECE7" stroke="#993C1D" stroke-width="0.8"/>
  <rect x="60" y="280" width="220" height="28" rx="4" fill="#F5C4B3" stroke="none"/>
  <rect x="60" y="304" width="220" height="4" fill="#F5C4B3" stroke="none"/>
  <text font-family="sans-serif" font-size="13" font-weight="600" x="170" y="298" text-anchor="middle" dominant-baseline="central" fill="#4A1B0C">NormalKullanici</text>
  <line x1="60" y1="308" x2="280" y2="308" stroke="#993C1D" stroke-width="0.5"/>
  <text font-family="sans-serif" font-size="11" x="72" y="325" dominant-baseline="central" fill="#4A1B0C">- kayitTarihi: Date</text>
  <line x1="60" y1="338" x2="280" y2="338" stroke="#993C1D" stroke-width="0.5"/>
  <text font-family="sans-serif" font-size="11" x="72" y="355" dominant-baseline="central" fill="#4A1B0C">+ filmListele(): List</text>
  <text font-family="sans-serif" font-size="11" x="72" y="373" dominant-baseline="central" fill="#4A1B0C">+ filmTalepEt(film: Film)</text>

  <rect x="380" y="280" width="240" height="140" rx="4" fill="#FAECE7" stroke="#993C1D" stroke-width="0.8"/>
  <rect x="380" y="280" width="240" height="28" rx="4" fill="#F5C4B3" stroke="none"/>
  <rect x="380" y="304" width="240" height="4" fill="#F5C4B3" stroke="none"/>
  <text font-family="sans-serif" font-size="13" font-weight="600" x="500" y="298" text-anchor="middle" dominant-baseline="central" fill="#4A1B0C">Abone</text>
  <line x1="380" y1="308" x2="620" y2="308" stroke="#993C1D" stroke-width="0.5"/>
  <text font-family="sans-serif" font-size="11" x="392" y="325" dominant-baseline="central" fill="#4A1B0C">- krediMiktari: double</text>
  <text font-family="sans-serif" font-size="11" x="392" y="343" dominant-baseline="central" fill="#4A1B0C">- abonelikDurumu: bool</text>
  <line x1="380" y1="356" x2="620" y2="356" stroke="#993C1D" stroke-width="0.5"/>
  <text font-family="sans-serif" font-size="11" x="392" y="373" dominant-baseline="central" fill="#4A1B0C">+ filmKirala(film: Film)</text>
  <text font-family="sans-serif" font-size="11" x="392" y="391" dominant-baseline="central" fill="#4A1B0C">+ krediKullan(miktar: double)</text>
  <text font-family="sans-serif" font-size="11" x="392" y="409" dominant-baseline="central" fill="#4A1B0C">+ filmSatinAl(film: Film)</text>

  <rect x="60" y="470" width="220" height="60" rx="4" fill="#EAF3DE" stroke="#3B6D11" stroke-width="0.8"/>
  <rect x="60" y="470" width="220" height="28" rx="4" fill="#C0DD97" stroke="none"/>
  <rect x="60" y="494" width="220" height="4" fill="#C0DD97" stroke="none"/>
  <text font-family="sans-serif" font-size="13" font-weight="600" x="170" y="488" text-anchor="middle" dominant-baseline="central" fill="#173404">KrediSatinAlma</text>
  <line x1="60" y1="498" x2="280" y2="498" stroke="#3B6D11" stroke-width="0.5"/>
  <text font-family="sans-serif" font-size="11" x="72" y="515" dominant-baseline="central" fill="#173404">- miktar: double  - tarih: Date</text>

  <rect x="380" y="470" width="220" height="60" rx="4" fill="#FAEEDA" stroke="#854F0B" stroke-width="0.8"/>
  <rect x="380" y="470" width="220" height="28" rx="4" fill="#FAC775" stroke="none"/>
  <rect x="380" y="494" width="220" height="4" fill="#FAC775" stroke="none"/>
  <text font-family="sans-serif" font-size="13" font-weight="600" x="490" y="488" text-anchor="middle" dominant-baseline="central" fill="#412402">Abonelik</text>
  <line x1="380" y1="498" x2="600" y2="498" stroke="#854F0B" stroke-width="0.5"/>
  <text font-family="sans-serif" font-size="11" x="392" y="515" dominant-baseline="central" fill="#412402">- baslangicTarihi: Date</text>

  <line x1="200" y1="138" x2="170" y2="280" stroke="#888" stroke-width="1" marker-end="url(#inherit)" fill="none"/>
  <line x1="340" y1="150" x2="340" y2="230" stroke="#888" stroke-width="1" fill="none"/>
  <line x1="340" y1="230" x2="500" y2="230" stroke="#888" stroke-width="1" fill="none"/>
  <line x1="500" y1="230" x2="500" y2="280" stroke="#888" stroke-width="1" marker-end="url(#inherit)" fill="none"/>

  <line x1="200" y1="108" x2="220" y2="108" stroke="#888" stroke-width="1" stroke-dasharray="5 3" marker-end="url(#arrow)" fill="none"/>
  <line x1="460" y1="108" x2="480" y2="108" stroke="#888" stroke-width="1" stroke-dasharray="5 3" marker-end="url(#arrow)" fill="none"/>

  <line x1="170" y1="400" x2="170" y2="470" stroke="#888" stroke-width="1" marker-end="url(#arrow)" fill="none"/>
  <text font-family="sans-serif" font-size="10" x="176" y="436" fill="#555">0..*</text>

  <line x1="490" y1="420" x2="490" y2="470" stroke="#888" stroke-width="1" marker-end="url(#arrow)" fill="none"/>
  <text font-family="sans-serif" font-size="10" x="496" y="447" fill="#555">1</text>

  <text font-family="sans-serif" font-size="10" x="340" y="580" text-anchor="middle" fill="#888">ISatinAlinabilir ve IKiralanabilir: bagimsiz interface ayrimi (ISP)</text>
  <text font-family="sans-serif" font-size="10" x="340" y="598" text-anchor="middle" fill="#888">NormalKullanici yalnizca ISatinAlinabilir; Abone her ikisini de implement eder</text>
</svg>
