<svg width="680" height="860" viewBox="0 0 680 860" xmlns="http://www.w3.org/2000/svg" style="background:#ffffff;">
  <defs>
    <marker id="open-arrow" viewBox="0 0 10 10" refX="8" refY="5" markerWidth="8" markerHeight="8" orient="auto">
      <path d="M1 1L8 5L1 9" fill="none" stroke="context-stroke" stroke-width="1.5" stroke-linecap="round" stroke-linejoin="round"/>
    </marker>
  </defs>

  <rect x="40" y="40" width="180" height="100" rx="4" fill="#fff" stroke="#aaa" stroke-width="0.8"/>
  <rect x="40" y="40" width="180" height="26" rx="4" fill="#EEEDFE" stroke="none"/>
  <rect x="40" y="58" width="180" height="8" fill="#EEEDFE" stroke="none"/>
  <text font-family="sans-serif" font-size="13" font-weight="600" x="130" y="58" text-anchor="middle" dominant-baseline="central" fill="#26215C">HavaYolu</text>
  <line x1="40" y1="66" x2="220" y2="66" stroke="#aaa" stroke-width="0.5"/>
  <text font-family="sans-serif" font-size="11" x="52" y="83" dominant-baseline="central" fill="#333">- havayoluId: String</text>
  <text font-family="sans-serif" font-size="11" x="52" y="101" dominant-baseline="central" fill="#333">- ad: String</text>
  <line x1="40" y1="114" x2="220" y2="114" stroke="#aaa" stroke-width="0.5"/>
  <text font-family="sans-serif" font-size="11" x="52" y="131" dominant-baseline="central" fill="#333">+ getId(): String</text>

  <rect x="260" y="40" width="180" height="110" rx="4" fill="#fff" stroke="#aaa" stroke-width="0.8"/>
  <rect x="260" y="40" width="180" height="26" rx="4" fill="#E1F5EE" stroke="none"/>
  <rect x="260" y="58" width="180" height="8" fill="#E1F5EE" stroke="none"/>
  <text font-family="sans-serif" font-size="13" font-weight="600" x="350" y="58" text-anchor="middle" dominant-baseline="central" fill="#04342C">UcakTipi</text>
  <line x1="260" y1="66" x2="440" y2="66" stroke="#aaa" stroke-width="0.5"/>
  <text font-family="sans-serif" font-size="11" x="272" y="83" dominant-baseline="central" fill="#333">- tipId: String</text>
  <text font-family="sans-serif" font-size="11" x="272" y="101" dominant-baseline="central" fill="#333">- model: String</text>
  <text font-family="sans-serif" font-size="11" x="272" y="119" dominant-baseline="central" fill="#333">- gerekliPilotSayisi: int</text>
  <line x1="260" y1="132" x2="440" y2="132" stroke="#aaa" stroke-width="0.5"/>
  <text font-family="sans-serif" font-size="11" x="272" y="145" dominant-baseline="central" fill="#333">+ getTip(): String</text>

  <rect x="460" y="40" width="180" height="110" rx="4" fill="#fff" stroke="#aaa" stroke-width="0.8"/>
  <rect x="460" y="40" width="180" height="26" rx="4" fill="#E6F1FB" stroke="none"/>
  <rect x="460" y="58" width="180" height="8" fill="#E6F1FB" stroke="none"/>
  <text font-family="sans-serif" font-size="13" font-weight="600" x="550" y="58" text-anchor="middle" dominant-baseline="central" fill="#042C53">Havaalani</text>
  <line x1="460" y1="66" x2="640" y2="66" stroke="#aaa" stroke-width="0.5"/>
  <text font-family="sans-serif" font-size="11" x="472" y="83" dominant-baseline="central" fill="#333">- havaalaniId: String</text>
  <text font-family="sans-serif" font-size="11" x="472" y="101" dominant-baseline="central" fill="#333">- ad: String</text>
  <line x1="460" y1="114" x2="640" y2="114" stroke="#aaa" stroke-width="0.5"/>
  <text font-family="sans-serif" font-size="11" x="472" y="131" dominant-baseline="central" fill="#333">+ getId(): String</text>

  <rect x="40" y="230" width="180" height="120" rx="4" fill="#fff" stroke="#aaa" stroke-width="0.8"/>
  <rect x="40" y="230" width="180" height="26" rx="4" fill="#FAECE7" stroke="none"/>
  <rect x="40" y="248" width="180" height="8" fill="#FAECE7" stroke="none"/>
  <text font-family="sans-serif" font-size="13" font-weight="600" x="130" y="248" text-anchor="middle" dominant-baseline="central" fill="#4A1B0C">Pilot</text>
  <line x1="40" y1="256" x2="220" y2="256" stroke="#aaa" stroke-width="0.5"/>
  <text font-family="sans-serif" font-size="11" x="52" y="273" dominant-baseline="central" fill="#333">- pilotId: String</text>
  <text font-family="sans-serif" font-size="11" x="52" y="291" dominant-baseline="central" fill="#333">- ad: String</text>
  <text font-family="sans-serif" font-size="11" x="52" y="309" dominant-baseline="central" fill="#333">- deneyimSeviyesi: int</text>
  <line x1="40" y1="322" x2="220" y2="322" stroke="#aaa" stroke-width="0.5"/>
  <text font-family="sans-serif" font-size="11" x="52" y="339" dominant-baseline="central" fill="#333">+ getDeneyim(): int</text>

  <rect x="260" y="230" width="180" height="120" rx="4" fill="#fff" stroke="#aaa" stroke-width="0.8"/>
  <rect x="260" y="230" width="180" height="26" rx="4" fill="#E1F5EE" stroke="none"/>
  <rect x="260" y="248" width="180" height="8" fill="#E1F5EE" stroke="none"/>
  <text font-family="sans-serif" font-size="13" font-weight="600" x="350" y="248" text-anchor="middle" dominant-baseline="central" fill="#04342C">Ucak</text>
  <line x1="260" y1="256" x2="440" y2="256" stroke="#aaa" stroke-width="0.5"/>
  <text font-family="sans-serif" font-size="11" x="272" y="273" dominant-baseline="central" fill="#333">- ucakId: String</text>
  <text font-family="sans-serif" font-size="11" x="272" y="291" dominant-baseline="central" fill="#333">- durum: Durum</text>
  <line x1="260" y1="304" x2="440" y2="304" stroke="#aaa" stroke-width="0.5"/>
  <text font-family="sans-serif" font-size="11" x="272" y="321" dominant-baseline="central" fill="#333">+ getDurum(): Durum</text>
  <text font-family="sans-serif" font-size="11" x="272" y="339" dominant-baseline="central" fill="#333">+ setDurum(d: Durum)</text>

  <rect x="460" y="230" width="170" height="90" rx="4" fill="#fff" stroke="#aaa" stroke-width="0.8"/>
  <rect x="460" y="230" width="170" height="26" rx="4" fill="#FAEEDA" stroke="none"/>
  <rect x="460" y="248" width="170" height="8" fill="#FAEEDA" stroke="none"/>
  <text font-family="sans-serif" font-size="10" font-style="italic" x="545" y="244" text-anchor="middle" dominant-baseline="central" fill="#633806">enumeration</text>
  <text font-family="sans-serif" font-size="13" font-weight="600" x="545" y="258" text-anchor="middle" dominant-baseline="central" fill="#412402">Durum</text>
  <line x1="460" y1="266" x2="630" y2="266" stroke="#aaa" stroke-width="0.5"/>
  <text font-family="sans-serif" font-size="11" x="472" y="283" dominant-baseline="central" fill="#333">CALISIYOR</text>
  <text font-family="sans-serif" font-size="11" x="472" y="301" dominant-baseline="central" fill="#333">ONARIMDA</text>

  <rect x="200" y="490" width="280" height="190" rx="4" fill="#fff" stroke="#aaa" stroke-width="0.8"/>
  <rect x="200" y="490" width="280" height="26" rx="4" fill="#E6F1FB" stroke="none"/>
  <rect x="200" y="508" width="280" height="8" fill="#E6F1FB" stroke="none"/>
  <text font-family="sans-serif" font-size="13" font-weight="600" x="340" y="508" text-anchor="middle" dominant-baseline="central" fill="#042C53">Ucus</text>
  <line x1="200" y1="516" x2="480" y2="516" stroke="#aaa" stroke-width="0.5"/>
  <text font-family="sans-serif" font-size="11" x="212" y="533" dominant-baseline="central" fill="#333">- ucusId: String</text>
  <text font-family="sans-serif" font-size="11" x="212" y="551" dominant-baseline="central" fill="#333">- kalkisHavaalani: Havaalani</text>
  <text font-family="sans-serif" font-size="11" x="212" y="569" dominant-baseline="central" fill="#333">- inisHavaalani: Havaalani</text>
  <text font-family="sans-serif" font-size="11" x="212" y="587" dominant-baseline="central" fill="#333">- kalkisSaati: DateTime</text>
  <text font-family="sans-serif" font-size="11" x="212" y="605" dominant-baseline="central" fill="#333">- inisSaati: DateTime</text>
  <text font-family="sans-serif" font-size="11" x="212" y="623" dominant-baseline="central" fill="#333">- ucak: Ucak</text>
  <line x1="200" y1="636" x2="480" y2="636" stroke="#aaa" stroke-width="0.5"/>
  <text font-family="sans-serif" font-size="11" x="212" y="653" dominant-baseline="central" fill="#333">+ getUcusId(): String</text>
  <text font-family="sans-serif" font-size="11" x="212" y="671" dominant-baseline="central" fill="#333">+ getUcak(): Ucak</text>

  <rect x="40" y="490" width="140" height="90" rx="4" fill="#fff" stroke="#aaa" stroke-width="0.8"/>
  <rect x="40" y="490" width="140" height="26" rx="4" fill="#FAECE7" stroke="none"/>
  <rect x="40" y="508" width="140" height="8" fill="#FAECE7" stroke="none"/>
  <text font-family="sans-serif" font-size="13" font-weight="600" x="110" y="508" text-anchor="middle" dominant-baseline="central" fill="#4A1B0C">UcusPilot</text>
  <line x1="40" y1="516" x2="180" y2="516" stroke="#aaa" stroke-width="0.5"/>
  <text font-family="sans-serif" font-size="11" x="52" y="533" dominant-baseline="central" fill="#333">- rol: Rol</text>
  <line x1="40" y1="546" x2="180" y2="546" stroke="#aaa" stroke-width="0.5"/>
  <text font-family="sans-serif" font-size="11" x="52" y="563" dominant-baseline="central" fill="#333">+ getRol(): Rol</text>

  <rect x="40" y="620" width="140" height="80" rx="4" fill="#fff" stroke="#aaa" stroke-width="0.8"/>
  <rect x="40" y="620" width="140" height="26" rx="4" fill="#FAEEDA" stroke="none"/>
  <rect x="40" y="638" width="140" height="8" fill="#FAEEDA" stroke="none"/>
  <text font-family="sans-serif" font-size="10" font-style="italic" x="110" y="634" text-anchor="middle" dominant-baseline="central" fill="#633806">enumeration</text>
  <text font-family="sans-serif" font-size="13" font-weight="600" x="110" y="648" text-anchor="middle" dominant-baseline="central" fill="#412402">Rol</text>
  <line x1="40" y1="656" x2="180" y2="656" stroke="#aaa" stroke-width="0.5"/>
  <text font-family="sans-serif" font-size="11" x="52" y="673" dominant-baseline="central" fill="#333">PILOT</text>
  <text font-family="sans-serif" font-size="11" x="52" y="691" dominant-baseline="central" fill="#333">YARDIMCI_PILOT</text>

  <line x1="130" y1="140" x2="130" y2="200" stroke="#888" stroke-width="1"/>
  <line x1="130" y1="200" x2="310" y2="200" stroke="#888" stroke-width="1"/>
  <line x1="310" y1="200" x2="310" y2="230" stroke="#888" stroke-width="1" marker-end="url(#open-arrow)"/>
  <text font-family="sans-serif" font-size="10" x="136" y="195" fill="#555">1</text>
  <text font-family="sans-serif" font-size="10" x="272" y="226" fill="#555">0..*</text>
  <text font-family="sans-serif" font-size="10" x="210" y="196" text-anchor="middle" fill="#555">sahip olur</text>

  <line x1="40" y1="90" x2="20" y2="90" stroke="#888" stroke-width="1"/>
  <line x1="20" y1="90" x2="20" y2="290" stroke="#888" stroke-width="1"/>
  <line x1="20" y1="290" x2="40" y2="290" stroke="#888" stroke-width="1" marker-end="url(#open-arrow)"/>
  <text font-family="sans-serif" font-size="10" x="24" y="86" fill="#555">1</text>
  <text font-family="sans-serif" font-size="10" x="24" y="285" fill="#555">0..*</text>

  <line x1="350" y1="230" x2="350" y2="150" stroke="#888" stroke-width="1" marker-end="url(#open-arrow)"/>
  <text font-family="sans-serif" font-size="10" x="356" y="175" fill="#555">1</text>
  <text font-family="sans-serif" font-size="10" x="356" y="245" fill="#555">0..*</text>

  <line x1="440" y1="285" x2="460" y2="285" stroke="#888" stroke-width="1" stroke-dasharray="5 3" marker-end="url(#open-arrow)"/>

  <line x1="340" y1="350" x2="340" y2="490" stroke="#888" stroke-width="1" marker-end="url(#open-arrow)"/>
  <text font-family="sans-serif" font-size="10" x="346" y="370" fill="#555">1</text>
  <text font-family="sans-serif" font-size="10" x="346" y="478" fill="#555">0..*</text>
  <text font-family="sans-serif" font-size="10" x="360" y="425" fill="#555">kullanir</text>

  <line x1="480" y1="545" x2="560" y2="545" stroke="#888" stroke-width="1"/>
  <line x1="560" y1="545" x2="560" y2="150" stroke="#888" stroke-width="1" marker-end="url(#open-arrow)"/>
  <text font-family="sans-serif" font-size="10" x="484" y="538" fill="#555">kalkis</text>

  <line x1="480" y1="600" x2="650" y2="600" stroke="#888" stroke-width="1"/>
  <line x1="650" y1="600" x2="650" y2="150" stroke="#888" stroke-width="1"/>
  <line x1="640" y1="150" x2="650" y2="150" stroke="#888" stroke-width="1" marker-end="url(#open-arrow)"/>
  <text font-family="sans-serif" font-size="10" x="484" y="593" fill="#555">inis</text>

  <line x1="130" y1="350" x2="130" y2="460" stroke="#888" stroke-width="1"/>
  <line x1="130" y1="460" x2="110" y2="460" stroke="#888" stroke-width="1"/>
  <line x1="110" y1="460" x2="110" y2="490" stroke="#888" stroke-width="1" marker-end="url(#open-arrow)"/>
  <text font-family="sans-serif" font-size="10" x="136" y="368" fill="#555">1..*</text>
  <text font-family="sans-serif" font-size="10" x="116" y="478" fill="#555">*</text>

  <line x1="200" y1="545" x2="180" y2="545" stroke="#888" stroke-width="1" marker-end="url(#open-arrow)"/>
  <text font-family="sans-serif" font-size="10" x="185" y="538" fill="#555">*</text>

  <line x1="110" y1="580" x2="110" y2="620" stroke="#888" stroke-width="1" stroke-dasharray="5 3" marker-end="url(#open-arrow)"/>

  <text font-family="sans-serif" font-size="11" font-weight="600" x="40" y="760" fill="#333">Gosterim:</text>
  <line x1="110" y1="757" x2="150" y2="757" stroke="#888" stroke-width="1" marker-end="url(#open-arrow)"/>
  <text font-family="sans-serif" font-size="10" x="155" y="761" fill="#555">iliski</text>
  <line x1="220" y1="757" x2="260" y2="757" stroke="#888" stroke-width="1" stroke-dasharray="5 3" marker-end="url(#open-arrow)"/>
  <text font-family="sans-serif" font-size="10" x="265" y="761" fill="#555">bagimlilik</text>

  <text font-family="sans-serif" font-size="10" x="340" y="800" text-anchor="middle" fill="#888">UcakTipi.gerekliPilotSayisi : kac pilot gerektigini belirtir</text>
</svg>
